<svg width="70" height="69" viewBox="0 0 70 69" fill="none" xmlns="http://www.w3.org/2000/svg">
<g filter="url(#filter0_d_2_394)">
<path d="M32.688 51.224C33.36 50.504 33.864 50.144 34.2 50.144C34.488 50.144 34.824 50.456 35.208 51.08C35.64 51.704 35.856 52.256 35.856 52.736C35.856 53.264 35.592 53.864 35.064 54.536C34.68 54.968 34.392 55.208 34.2 55.256C34.056 55.304 33.84 55.208 33.552 54.968C33.12 54.632 32.904 54.56 32.904 54.752L32.832 54.824C32.736 54.824 32.52 54.512 32.184 53.888C31.848 53.264 31.656 52.832 31.608 52.592C31.608 52.4 31.968 51.944 32.688 51.224ZM33.408 43.088C33.6 42.992 33.888 42.944 34.272 42.944C34.848 42.944 35.352 43.136 35.784 43.52C36.264 43.904 36.504 44.336 36.504 44.816C36.504 45.248 36.312 45.608 35.928 45.896C35.448 46.328 34.8 46.496 33.984 46.4C33.504 46.304 33.192 46.16 33.048 45.968C32.952 45.728 32.904 45.32 32.904 44.744C32.904 43.784 33.072 43.232 33.408 43.088ZM38.304 18.896C38.544 17.648 39.384 17.024 40.824 17.024H41.328C41.856 17.072 42.12 17.552 42.12 18.464V19.184C42.12 20.528 41.904 21.368 41.472 21.704C41.088 21.944 40.824 22.064 40.68 22.064C40.344 22.064 39.84 21.728 39.168 21.056C38.496 20.48 38.16 19.976 38.16 19.544C38.16 19.496 38.208 19.28 38.304 18.896ZM26.928 19.544C26.928 18.872 27.192 18.272 27.72 17.744C28.248 17.216 28.728 16.952 29.16 16.952C29.496 16.952 29.904 17.12 30.384 17.456C30.816 17.744 31.032 18.344 31.032 19.256V19.76C30.936 20.528 30.816 21.008 30.672 21.2C30.528 21.392 30.144 21.512 29.52 21.56H29.16C28.488 21.56 27.936 21.368 27.504 20.984C27.12 20.6 26.928 20.12 26.928 19.544ZM29.232 42.872C29.328 41.72 29.376 41.048 29.376 40.856C29.376 40.136 29.28 39.776 29.088 39.776C28.848 39.776 28.56 40.016 28.224 40.496C27.936 40.928 27.768 41.336 27.72 41.72C27.72 41.768 27.672 42.032 27.576 42.512C27.48 42.992 27.384 43.376 27.288 43.664C27 44.672 26.856 45.392 26.856 45.824C26.856 46.4 27.12 46.688 27.648 46.688C28.224 46.688 28.584 46.52 28.728 46.184C28.872 45.8 29.04 44.696 29.232 42.872ZM22.176 37.184C21.936 37.184 21.648 37.544 21.312 38.264C20.976 38.984 20.808 39.608 20.808 40.136C20.808 40.712 20.592 41.168 20.16 41.504C19.728 41.888 19.512 42.704 19.512 43.952C19.512 45.344 19.752 46.904 20.232 48.632C20.712 50.312 21.336 51.68 22.104 52.736C22.632 53.504 23.904 54.416 25.92 55.472C27.936 56.528 29.616 57.152 30.96 57.344C31.248 57.392 31.728 57.416 32.4 57.416C35.808 57.416 38.736 56.768 41.184 55.472C45.12 53.312 47.352 49.304 47.88 43.448C47.928 43.016 47.952 42.416 47.952 41.648C47.952 39.008 47.376 37.688 46.224 37.688C45.84 37.688 45.456 37.784 45.072 37.976C44.112 38.504 42.648 39.032 40.68 39.56C38.712 40.04 37.056 40.304 35.712 40.352C33.744 40.496 32.64 40.784 32.4 41.216C32.16 41.648 31.944 42.92 31.752 45.032C31.56 47.048 31.32 48.32 31.032 48.848C30.744 49.376 30.072 49.64 29.016 49.64C28.872 49.64 28.632 49.64 28.296 49.64C27.96 49.592 27.672 49.568 27.432 49.568C25.272 49.472 23.976 49.112 23.544 48.488C23.112 47.912 22.992 47.432 23.184 47.048C23.424 46.568 23.808 45.296 24.336 43.232C24.864 41.168 25.128 39.848 25.128 39.272C25.128 39.032 24.696 38.624 23.832 38.048C23.016 37.472 22.464 37.184 22.176 37.184ZM37.08 34.376C33.048 34.376 30.504 34.28 29.448 34.088C28.776 33.992 28.296 33.944 28.008 33.944C26.712 33.944 26.064 34.208 26.064 34.736C26.064 34.976 26.328 35.24 26.856 35.528C29.544 36.92 32.28 37.616 35.064 37.616C36.744 37.616 38.424 37.328 40.104 36.752C42.504 35.936 43.704 35.36 43.704 35.024C43.704 34.592 41.496 34.376 37.08 34.376ZM39.024 13.496C38.208 13.016 36.888 12.776 35.064 12.776C33.48 12.776 32.04 12.968 30.744 13.352C29.064 13.88 27.816 14.456 27 15.08C26.184 15.704 25.392 16.712 24.624 18.104C23.808 19.544 23.4 20.816 23.4 21.92C23.4 22.016 23.4 22.208 23.4 22.496C23.448 22.784 23.472 23 23.472 23.144C23.568 24.872 24.12 26.36 25.128 27.608C26.088 28.808 26.688 29.408 26.928 29.408C27.216 29.408 27.6 29.6 28.08 29.984C28.704 30.512 29.664 30.968 30.96 31.352C32.304 31.736 33.576 31.928 34.776 31.928C34.92 31.928 35.088 31.928 35.28 31.928C35.472 31.88 35.616 31.856 35.712 31.856C38.208 31.616 40.224 30.704 41.76 29.12C43.344 27.488 44.232 25.424 44.424 22.928C44.424 22.784 44.424 22.592 44.424 22.352C44.472 22.112 44.496 21.944 44.496 21.848C44.496 18.2 42.672 15.416 39.024 13.496ZM39.96 4.136C39.384 3.704 38.808 3.488 38.232 3.488C37.512 3.488 36.864 3.8 36.288 4.424C35.76 5 35.496 5.768 35.496 6.728C35.496 8.168 34.872 8.888 33.624 8.888C33.24 8.888 32.952 8.864 32.76 8.816C31.992 8.672 31.608 8.816 31.608 9.248C31.608 9.632 31.896 9.824 32.472 9.824C32.568 9.824 33.096 9.776 34.056 9.68C34.2 9.68 34.392 9.68 34.632 9.68C34.92 9.632 35.136 9.608 35.28 9.608C36.432 9.608 37.728 9.8 39.168 10.184C41.376 10.808 43.08 11.12 44.28 11.12C44.712 11.12 44.928 11.072 44.928 10.976C44.928 10.736 44.16 10.376 42.624 9.896C41.76 9.608 41.256 9.344 41.112 9.104C40.968 8.864 40.872 8.168 40.824 7.016C40.776 5.48 40.488 4.52 39.96 4.136ZM35.712 0.823998C36.048 0.679997 36.744 0.607996 37.8 0.607996H38.736C40.128 0.703998 41.232 1.256 42.048 2.264C42.864 3.272 43.44 4.352 43.776 5.504C43.968 6.224 44.208 6.752 44.496 7.088C44.784 7.376 45.288 7.712 46.008 8.096C47.88 9.008 48.816 10.136 48.816 11.48C48.816 12.536 48.264 13.352 47.16 13.928L45.792 14.72L46.944 16.736C47.664 18.176 48.024 19.256 48.024 19.976C48.024 21.128 47.76 22.688 47.232 24.656C46.752 26.624 46.224 28.112 45.648 29.12C45.024 30.224 44.712 31.064 44.712 31.64C44.712 32.168 45.36 32.528 46.656 32.72C47.616 32.864 48.264 33.08 48.6 33.368C48.984 33.656 49.272 34.256 49.464 35.168C49.656 35.936 49.968 36.416 50.4 36.608L50.544 36.68C50.592 36.68 50.64 36.68 50.688 36.68C51.936 36.68 53.472 35.816 55.296 34.088C55.92 33.512 56.328 33.008 56.52 32.576C56.76 32.144 57 31.352 57.24 30.2C57.432 29.144 57.864 28.616 58.536 28.616C58.92 28.616 59.256 28.832 59.544 29.264C59.832 29.648 59.976 30.152 59.976 30.776V31.208C59.976 31.304 59.952 31.448 59.904 31.64C59.904 31.832 59.904 31.952 59.904 32C59.904 32.576 60.216 32.936 60.84 33.08C61.56 33.272 62.184 33.272 62.712 33.08C62.856 33.032 63.048 33.008 63.288 33.008C63.816 33.008 64.272 33.176 64.656 33.512C65.088 33.8 65.304 34.184 65.304 34.664C65.304 35.336 65.04 35.816 64.512 36.104C64.032 36.392 63.168 36.536 61.92 36.536C61.776 36.536 61.512 36.536 61.128 36.536C60.792 36.488 60.528 36.464 60.336 36.464L56.88 36.176C54.384 38.096 52.512 39.512 51.264 40.424L50.976 43.52C50.64 47.552 49.512 51.008 47.592 53.888C46.872 54.944 46.224 55.736 45.648 56.264C45.072 56.744 44.208 57.272 43.056 57.848C39.936 59.336 36.792 60.08 33.624 60.08C30.792 60.08 28.032 59.504 25.344 58.352C22.368 57.104 20.232 55.448 18.936 53.384C17.64 51.272 16.896 48.272 16.704 44.384L16.56 40.064L14.616 38.192C13.752 37.376 13.008 36.848 12.384 36.608C11.808 36.368 10.656 36.128 8.928 35.888C5.664 35.408 4.032 34.64 4.032 33.584C4.032 33.344 4.104 33.032 4.248 32.648C4.584 31.976 5.136 31.64 5.904 31.64C6.576 31.64 7.224 31.832 7.848 32.216C8.472 32.6 8.976 32.792 9.36 32.792C9.696 32.792 9.864 32.552 9.864 32.072C9.864 31.88 9.816 31.544 9.72 31.064C9.672 30.536 9.648 30.152 9.648 29.912C9.648 29.336 9.768 28.928 10.008 28.688C10.296 28.304 10.752 28.112 11.376 28.112C11.952 28.112 12.264 28.28 12.312 28.616C12.552 29.576 12.768 30.392 12.96 31.064C13.248 32.024 14.04 33.224 15.336 34.664C16.632 36.056 17.592 36.752 18.216 36.752C18.696 36.656 19.344 36.08 20.16 35.024C21.072 33.824 21.96 33.032 22.824 32.648C23.4 32.36 23.736 32.144 23.832 32C23.976 31.808 23.976 31.52 23.832 31.136C23.4 30.464 23.088 30.08 22.896 29.984C22.56 29.84 22.056 29.024 21.384 27.536C20.664 26.096 20.304 24.2 20.304 21.848C20.304 20.552 20.472 19.4 20.808 18.392C21.192 17.48 21.864 16.28 22.824 14.792C23.832 13.304 24.48 12.56 24.768 12.56C25.344 12.416 25.848 12.152 26.28 11.768C26.76 11.384 27 10.928 27 10.4C27 9.968 26.976 9.632 26.928 9.392C26.88 9.2 26.856 8.936 26.856 8.6C26.856 7.928 27.048 7.424 27.432 7.088C27.864 6.704 28.608 6.368 29.664 6.08C30.96 5.744 31.608 5.456 31.608 5.216C31.608 4.928 32.16 4.184 33.264 2.984C34.416 1.736 35.232 1.016 35.712 0.823998Z" fill="white"/>
</g>
<defs>
<filter id="filter0_d_2_394" x="0.0319824" y="0.608002" width="69.272" height="67.472" filterUnits="userSpaceOnUse" color-interpolation-filters="sRGB">
<feFlood flood-opacity="0" result="BackgroundImageFix"/>
<feColorMatrix in="SourceAlpha" type="matrix" values="0 0 0 0 0 0 0 0 0 0 0 0 0 0 0 0 0 0 127 0" result="hardAlpha"/>
<feOffset dy="4"/>
<feGaussianBlur stdDeviation="2"/>
<feComposite in2="hardAlpha" operator="out"/>
<feColorMatrix type="matrix" values="0 0 0 0 0 0 0 0 0 0 0 0 0 0 0 0 0 0 0.25 0"/>
<feBlend mode="normal" in2="BackgroundImageFix" result="effect1_dropShadow_2_394"/>
<feBlend mode="normal" in="SourceGraphic" in2="effect1_dropShadow_2_394" result="shape"/>
</filter>
</defs>
</svg>
